<svg width="24" height="24" viewBox="0 0 24 24" fill="none" xmlns="http://www.w3.org/2000/svg">
<path d="M16.5188 9.34686H21.0188V4.84686" stroke="#212121" stroke-width="2" stroke-linecap="round" stroke-linejoin="round"/>
<path d="M6.1687 6.16876C6.93407 5.40227 7.84304 4.7942 8.84362 4.37932C9.84421 3.96443 10.9168 3.75089 12 3.75089C13.0831 3.75089 14.1557 3.96443 15.1563 4.37932C16.1569 4.7942 17.0658 5.40227 17.8312 6.16876L21.0187 9.34688" stroke="#212121" stroke-width="2" stroke-linecap="round" stroke-linejoin="round"/>
<path d="M7.4812 14.6531H2.9812V19.1531" stroke="#212121" stroke-width="2" stroke-linecap="round" stroke-linejoin="round"/>
<path d="M17.8312 17.8313C17.0658 18.5977 16.1569 19.2058 15.1563 19.6207C14.1557 20.0356 13.0831 20.2491 12 20.2491C10.9168 20.2491 9.84421 20.0356 8.84362 19.6207C7.84304 19.2058 6.93407 18.5977 6.1687 17.8313L2.9812 14.6531" stroke="#212121" stroke-width="2" stroke-linecap="round" stroke-linejoin="round"/>
</svg>
